<?xml version="1.0" encoding="UTF-8"?>
<svg width="20px" height="20px" viewBox="0 0 20 20" version="1.1" xmlns="http://www.w3.org/2000/svg" xmlns:xlink="http://www.w3.org/1999/xlink">
    <!-- Generator: Sketch 61.2 (89653) - https://sketch.com -->
    <title>Imported Layers 2</title>
    <desc>Created with Sketch.</desc>
    <g id="Page-1" stroke="none" stroke-width="1" fill="none" fill-rule="evenodd">
        <g id="раскрыто-меню" transform="translate(-27.000000, -764.000000)" stroke="#000000">
            <g id="Imported-Layers-2" transform="translate(28.000000, 765.000000)">
                <path d="M1,0 C0.447,0 0,0.447 0,1 C0,10.388 7.612,18 17,18 C17.553,18 18,17.553 18,17 L18,13.5 C18,12.948 17.553,12.501 17,12.501 C15.752,12.501 14.552,12.3 13.428,11.932 C13.328,11.9 13.223,11.884 13.119,11.884 C12.864,11.884 12.608,11.982 12.413,12.177 L10.212,14.38 C7.38,12.94 5.065,10.625 3.623,7.794 L5.823,5.587 C6.098,5.313 6.179,4.918 6.068,4.572 C5.7,3.447 5.499,2.247 5.499,1 C5.499,0.447 5.052,0 4.5,0 L1,0 Z" id="Imported-Layers"></path>
            </g>
        </g>
    </g>
</svg>