<svg width="87" height="15" viewBox="0 0 87 15" fill="none" xmlns="http://www.w3.org/2000/svg">
<path id="LOOKAP" fill-rule="evenodd" clip-rule="evenodd" d="M26.123 12.4473C24.7819 13.7493 23.1055 14.4004 21.0938 14.4004C18.9583 14.4004 17.2168 13.6875 15.8691 12.2617C14.6126 10.9206 13.9844 9.29948 13.9844 7.39844C13.9844 5.30208 14.6419 3.58008 15.957 2.23242C17.2852 0.865234 18.9974 0.181641 21.0938 0.181641C23.112 0.181641 24.7884 0.832682 26.123 2.13477C27.4967 3.4694 28.1836 5.18815 28.1836 7.29102C28.1836 9.39388 27.4967 11.1126 26.123 12.4473ZM12.7539 9.46875L11.9434 14H0.361328V13.4922C0.908203 13.4727 1.29883 13.401 1.5332 13.2773C1.93034 13.069 2.12891 12.6719 2.12891 12.0859V2.4082C2.12891 1.82227 1.9401 1.42839 1.5625 1.22656C1.34115 1.10286 0.940755 1.02474 0.361328 0.992188V0.484375H7.35352V0.992188C6.53971 1.01823 5.99772 1.13216 5.72754 1.33398C5.45736 1.53581 5.32227 2.03385 5.32227 2.82812V12.2715C5.32227 12.7142 5.43783 13.0072 5.66895 13.1504C5.90006 13.2936 6.35091 13.3652 7.02148 13.3652C8.22591 13.3652 9.23665 13.0999 10.0537 12.5693C10.8708 12.0387 11.5755 11.0052 12.168 9.46875H12.7539ZM21.0938 13.7266C19.5833 13.7266 18.5514 12.8379 17.998 11.0605C17.6986 10.1035 17.5488 8.847 17.5488 7.29102C17.5488 5.76107 17.6953 4.51758 17.9883 3.56055C18.5482 1.75716 19.5833 0.855469 21.0938 0.855469C22.181 0.855469 23.042 1.39583 23.6768 2.47656C24.3115 3.55729 24.6289 5.16211 24.6289 7.29102C24.6289 8.8405 24.4792 10.097 24.1797 11.0605C23.6198 12.8379 22.5911 13.7266 21.0938 13.7266ZM41.6797 12.4473C40.3385 13.7493 38.6621 14.4004 36.6504 14.4004C34.515 14.4004 32.7734 13.6875 31.4258 12.2617C30.1693 10.9206 29.541 9.29948 29.541 7.39844C29.541 5.30208 30.1986 3.58008 31.5137 2.23242C32.8418 0.865234 34.554 0.181641 36.6504 0.181641C38.6686 0.181641 40.3451 0.832682 41.6797 2.13477C43.0534 3.4694 43.7402 5.18815 43.7402 7.29102C43.7402 9.39388 43.0534 11.1126 41.6797 12.4473ZM36.6504 13.7266C35.14 13.7266 34.1081 12.8379 33.5547 11.0605C33.2552 10.1035 33.1055 8.847 33.1055 7.29102C33.1055 5.76107 33.252 4.51758 33.5449 3.56055C34.1048 1.75716 35.14 0.855469 36.6504 0.855469C37.7376 0.855469 38.5986 1.39583 39.2334 2.47656C39.8682 3.55729 40.1855 5.16211 40.1855 7.29102C40.1855 8.8405 40.0358 10.097 39.7363 11.0605C39.1764 12.8379 38.1478 13.7266 36.6504 13.7266ZM51.6895 13.4922V14H44.9609V13.4922C45.5013 13.4727 45.8854 13.401 46.1133 13.2773C46.4974 13.069 46.6895 12.6719 46.6895 12.0859V2.4082C46.6895 1.82878 46.5137 1.43815 46.1621 1.23633C45.9473 1.11263 45.5469 1.03125 44.9609 0.992188V0.484375H51.7188V0.992188C51.0286 1.05078 50.5632 1.18099 50.3223 1.38281C50.0814 1.58464 49.9609 2.06641 49.9609 2.82812V7.10547L54.2676 2.75C54.5671 2.45052 54.7607 2.2373 54.8486 2.11035C54.9365 1.9834 54.9805 1.82878 54.9805 1.64648C54.9805 1.39258 54.8649 1.22982 54.6338 1.1582C54.4027 1.08659 53.9551 1.03125 53.291 0.992188V0.484375H59.082V0.992188C58.0469 1.07682 57.1891 1.36979 56.5088 1.87109C55.8284 2.3724 54.541 3.5931 52.6465 5.5332L58.75 13.082C58.8802 13.2448 59.0088 13.3473 59.1357 13.3896C59.2627 13.432 59.4596 13.4661 59.7266 13.4922V14H53.0176V13.4922C53.623 13.4857 54.0365 13.4596 54.2578 13.4141C54.4792 13.3685 54.5898 13.2546 54.5898 13.0723C54.5898 12.9876 54.554 12.8786 54.4824 12.7451C54.4108 12.6117 54.2839 12.431 54.1016 12.2031L50.4688 7.66211L49.9609 8.16992V12.0859C49.9609 12.6654 50.153 13.0592 50.5371 13.2676C50.7585 13.3913 51.1426 13.4661 51.6895 13.4922ZM64.4531 14V13.4922C63.9974 13.4857 63.6556 13.4466 63.4277 13.375C63.0436 13.2448 62.8516 13.0365 62.8516 12.75C62.8516 12.5156 62.9395 12.1413 63.1152 11.627C63.1999 11.3861 63.3887 10.8685 63.6816 10.0742H68.1738L68.6816 11.2852C68.7923 11.5521 68.8802 11.7799 68.9453 11.9688C69.0495 12.2878 69.1016 12.5254 69.1016 12.6816C69.1016 13.0267 68.999 13.2415 68.7939 13.3262C68.5889 13.4108 68.1608 13.4661 67.5098 13.4922V14H73.9844V13.4922C73.5286 13.5052 73.1771 13.3408 72.9297 12.999C72.6823 12.6572 72.3079 11.8971 71.8066 10.7188L67.3438 0.210938H66.7871L62.3438 11.1582C61.9922 12.0241 61.722 12.584 61.5332 12.8379C61.2402 13.2415 60.8529 13.4596 60.3711 13.4922V14H64.4531ZM63.9844 9.2832H67.8711L65.957 4.6543H65.791L63.9844 9.2832ZM81.4355 14V13.4922C80.7585 13.4661 80.2962 13.3392 80.0488 13.1113C79.8014 12.8835 79.6777 12.4017 79.6777 11.666V7.93555C80.8691 7.93555 81.7676 7.90951 82.373 7.85742C82.9785 7.80534 83.584 7.6556 84.1895 7.4082C84.9902 7.05664 85.5648 6.59277 85.9131 6.0166C86.2614 5.44043 86.4355 4.82357 86.4355 4.16602C86.4355 2.81836 85.9912 1.86784 85.1025 1.31445C84.2139 0.761068 82.9167 0.484375 81.2109 0.484375H74.7754V0.992188C75.4264 1.0638 75.8659 1.19889 76.0938 1.39746C76.3216 1.59603 76.4355 2.07292 76.4355 2.82812V11.666C76.4355 12.3757 76.3232 12.846 76.0986 13.0771C75.874 13.3083 75.4329 13.4466 74.7754 13.4922V14H81.4355ZM79.6777 1.87109V7.24219C80.8691 7.22266 81.6634 7.08594 82.0605 6.83203C82.6921 6.42839 83.0078 5.55924 83.0078 4.22461C83.0078 3.31315 82.8548 2.57747 82.5488 2.01758C82.2428 1.45768 81.6569 1.17773 80.791 1.17773C80.3939 1.17773 80.109 1.22493 79.9365 1.31934C79.764 1.41374 79.6777 1.59766 79.6777 1.87109Z" fill="black"/>
</svg>
