<svg width="22" height="14" viewBox="0 0 22 14" fill="none" xmlns="http://www.w3.org/2000/svg">
<g opacity="0.297573" clip-path="url(#clip0)">
<path fill-rule="evenodd" clip-rule="evenodd" d="M7.00002 8C4.66702 8 -0.000976562 9.167 -0.000976562 11.5V13.999H14V11.5C14 9.167 9.33402 8 7.00002 8ZM15.001 8C14.71 8 14.384 8.018 14.035 8.054C15.193 8.892 16 10.017 16 11.5V13.999H21.999V11.5C21.999 9.167 17.334 8 15.001 8ZM7.00002 -0.000999451C5.34402 -0.000999451 4.00002 1.344 4.00002 3C4.00002 4.656 5.34402 6 7.00002 6C8.65702 6 9.99102 4.656 9.99102 3C9.99102 1.344 8.65702 -0.000999451 7.00002 -0.000999451ZM15.001 -0.000999451C13.343 -0.000999451 12 1.344 12 3C12 4.656 13.343 6 15.001 6C16.657 6 17.99 4.656 17.99 3C17.99 1.344 16.657 -0.000999451 15.001 -0.000999451Z" fill="#747B81"/>
</g>
<defs>
<clipPath id="clip0">
<rect width="22" height="14" fill="white"/>
</clipPath>
</defs>
</svg>
