<?xml version="1.0" encoding="UTF-8"?>
<svg width="57px" height="58px" viewBox="0 0 57 58" version="1.1" xmlns="http://www.w3.org/2000/svg" xmlns:xlink="http://www.w3.org/1999/xlink">
    <!-- Generator: Sketch 61.2 (89653) - https://sketch.com -->
    <title>make-up</title>
    <desc>Created with Sketch.</desc>
    <g id="Page-1" stroke="none" stroke-width="1" fill="none" fill-rule="evenodd">
        <g id="make-up" fill="#B8B8B8" fill-rule="nonzero">
            <path d="M28.4734678,33.1242623 C28.0130939,32.8212303 27.4622152,33.0914296 27.2429719,33.7282822 L27.0898526,34.1733764 C26.8707016,34.810229 27.0662105,35.5722803 27.526492,35.8755678 C27.6546764,35.9600131 27.7896948,36 27.9227738,36 C28.2678003,36 28.5987892,35.7313338 28.7569879,35.2715479 L28.9101073,34.8264537 C29.1293506,34.1894734 28.9337494,33.427422 28.4734678,33.1242623 Z" id="Path"></path>
            <path d="M14.6808188,26.4020735 C14.2551167,25.8659755 13.5648774,25.8659755 13.1391753,26.4020735 C12.2354306,27.5403206 10.7647738,27.5403206 9.86092012,26.4020735 C9.43521802,25.8659755 8.74497869,25.8659755 8.31927658,26.4020735 C7.89357447,26.9381716 7.89357447,27.8074084 8.31927658,28.3435065 C9.19619675,29.4476982 10.3481222,30 11.5000477,30 C12.6519732,30 13.8037896,29.4478355 14.6807098,28.3435065 C15.1064119,27.8075457 15.1064119,26.9383089 14.6808188,26.4020735 Z" id="Path"></path>
            <path d="M53.9532005,3.0095855 C49.9036593,-0.981344478 43.3232842,-0.992902538 39.2576465,2.9724184 C37.9885503,2.35145599 36.641156,1.81876542 35.2205226,1.38023904 C30.5600032,-0.0585127428 26.7471959,-0.00514170308 26.4165273,0.00199709841 C20.1813077,0.00607641354 14.7425212,2.58454352 12.2196206,6.73332033 C11.8866524,7.28085507 11.6092173,7.84833314 11.3866253,8.43224177 C10.1983567,9.54736789 4.8359138,15.0092309 4.8359138,22.7538107 C4.8359138,27.9121047 2.31841701,30.6052459 0.817875789,31.7515334 C0.257141781,32.1798615 -0.0465076992,32.8524953 0.00580601286,33.550738 C0.0581197249,34.2493208 0.458808267,34.8709631 1.07771972,35.2137388 C1.64316771,35.5269396 2.2790955,35.8275625 2.89398282,36.118327 C3.4377005,36.3754371 4.21033378,36.7407625 4.58710749,36.9784959 L4.58710749,38.9961705 C4.58710749,39.2722041 4.53364402,39.5417789 4.42821177,39.7977559 L4.14318827,40.4891998 C3.7528475,41.4358276 3.89656649,42.5196789 4.51605282,43.3353153 L4.51605282,43.5838136 C4.51605282,44.3188835 4.84442196,44.9992227 5.39135895,45.4607518 L5.39135895,46.7908352 C5.39135895,49.6412567 7.74421126,51.9601207 10.6364122,51.9601207 L14.0302499,51.9601207 C14.6650279,51.9601207 15.1796569,51.4529258 15.1796569,50.8273175 C15.1796569,50.2017092 14.6650279,49.6945144 14.0302499,49.6945144 L10.6364122,49.6945144 C9.01192772,49.6945144 7.69005795,48.3918531 7.69005795,46.7907219 L7.69005795,44.8362767 C7.69005795,44.3823396 7.41515227,43.9724817 6.99158366,43.7943516 L6.94191438,43.7735018 C6.86465105,43.7409806 6.81475182,43.6665331 6.81475182,43.5838136 L6.81475182,42.944381 C6.81475182,42.6903303 6.72806052,42.4435317 6.56870491,42.2438719 L6.36588867,41.9898212 C6.21941028,41.8064787 6.18388294,41.5580937 6.27298872,41.34189 L6.55801221,40.6503328 C6.77554528,40.1224014 6.88592146,39.5659148 6.88592146,38.9961705 L6.88592146,36.584502 C6.88592146,35.4929453 5.75766991,34.9594615 3.88840325,34.0756099 C3.39757416,33.8435422 2.89283307,33.604789 2.4463844,33.3694351 C4.29495552,31.8825248 7.13484275,28.639016 7.13484275,22.7536974 C7.13484275,18.495119 9.05826272,14.9465681 10.7268977,12.6687239 C10.818073,14.6425458 11.4238773,16.7066793 12.5450004,18.773419 C15.4949189,24.2110327 20.6320104,26.4902367 24.7597347,28.321396 C28.6870573,30.0637168 30.9098727,31.160486 30.9276939,33.4403699 C30.9406861,35.1145888 30.5500004,36.3464287 29.7664444,37.1014419 C28.8618196,37.9732822 27.6610187,37.9509593 27.6537753,37.950846 C27.2680335,37.9242171 26.9064365,38.0902226 26.6715422,38.3925452 C26.4365329,38.6948677 26.3830695,39.0940741 26.5096572,39.453847 C26.5433449,39.5497109 27.3575992,41.8250622 29.221692,44.0422833 C31.5515492,46.8133848 34.4924997,48.2755926 37.7717071,48.3083404 L40.8601707,57.2325222 C41.0230905,57.7035698 41.4696542,58 41.947836,58 C42.0708595,58 42.1960674,57.9803966 42.3189759,57.9389236 C42.9198363,57.7369975 43.240732,57.0932589 43.0357313,56.5011916 L39.9941775,47.7124205 C45.7283353,44.6839823 49.7599403,39.9860843 51.6818656,34.0694909 C53.2139101,29.3532361 53.2871493,24.0612312 51.9926436,19.0491127 C52.7019255,18.624184 53.3592387,18.1168758 53.9530856,17.5316074 C58.015619,13.5279863 58.015619,7.0134333 53.9532005,3.0095855 Z M49.492738,33.3790669 C47.6890072,38.9320346 43.8165278,43.3040406 38.2863361,46.0355953 C35.4900244,46.1593346 33.0510557,45.0205257 31.0347358,42.6476108 C30.2217462,41.6910114 29.6333032,40.70631 29.2480213,39.9609285 C29.9038398,39.7587758 30.6570423,39.3985496 31.3351659,38.7584371 C32.6082862,37.5566255 33.2446739,35.7616135 33.2265078,33.4232594 C33.1966143,29.5798647 29.5568447,27.9652491 25.7034511,26.2556761 C21.695416,24.477548 17.1526312,22.462253 14.5722429,17.7054316 C12.9692588,14.7503077 12.5919103,11.9404528 13.4462909,9.47688639 C13.4498551,9.4674813 13.4531894,9.4579629 13.4565237,9.44855781 C13.6438183,8.91484742 13.8881406,8.39700102 14.1916751,7.89785149 C16.3034244,4.42488122 20.9936074,2.26737677 26.431704,2.26737677 C26.4427416,2.26737677 26.4536642,2.26726346 26.4648168,2.26692351 C26.5005741,2.26552018 30.1232124,2.1804647 34.5335458,3.54193612 C40.4026844,5.35394524 44.7260965,8.73014509 47.3835181,13.5768247 C50.7419435,19.7027096 51.5305583,27.1053068 49.492738,33.3790669 Z M51.3056668,16.7848661 C50.7928775,15.3121201 50.160054,13.8756346 49.4057018,12.4998855 C47.5188439,9.05875659 44.7928971,6.2333776 41.3741098,4.13513653 C44.5612221,1.5018253 49.3324626,1.65933219 52.3277963,4.61150989 C55.4939831,7.73195934 55.4939831,12.8093469 52.3277963,15.9297964 C52.009085,16.2440169 51.6674937,16.5294557 51.3056668,16.7848661 Z" id="Shape"></path>
            <path d="M29.8481774,53.0582971 L26.3029534,46.9013136 L26.1830852,42.6972004 C26.0827988,39.1764272 23.3668048,36.3060812 19.8654986,36.0204198 C17.2908788,35.8100042 14.8189225,37.2416022 13.7131694,39.5821639 L13.6572535,39.7004234 C12.191443,42.8027486 13.2489772,46.555728 16.1170986,48.4304019 L19.6462495,50.7370292 L23.5017273,57.4326495 C23.711242,57.7966209 24.0915604,58 24.4826318,58 C24.6744889,58 24.8691757,57.9509711 25.0473367,57.8478061 C25.5884981,57.534566 25.7740165,56.8406712 25.4614989,56.2979487 L22.0364828,50.3497918 L23.4011014,49.5597686 L24.76572,48.7697453 L27.8881793,54.1924305 C28.2004705,54.7350395 28.8925142,54.9209407 29.433902,54.6077006 C29.9752897,54.294801 30.1606949,53.6009061 29.8481774,53.0582971 Z M20.5269809,48.6040458 L17.3531333,46.5296247 C15.428677,45.2717842 14.7190889,42.7534928 15.7025968,40.6718081 L15.7585126,40.5535486 C16.4179576,39.1579279 17.8393976,38.2692794 19.3635009,38.2692794 C19.4693336,38.2692794 19.575619,38.2735921 19.6821308,38.282331 C22.0313892,38.4739069 23.8537482,40.3999929 23.920983,42.7622317 L24.0297586,46.5762702 L20.5269809,48.6040458 Z" id="Shape"></path>
            <path d="M31.7070121,56.2929879 C31.5210563,56.1069321 31.2629789,56 31,56 C30.7360208,56 30.4790437,56.1070321 30.2929879,56.2929879 C30.1069321,56.4789437 30,56.7370211 30,57 C30,57.2629789 30.1070321,57.5209563 30.2929879,57.7070121 C30.4789437,57.8929679 30.7360208,58 31,58 C31.2629789,58 31.5209563,57.8929679 31.7070121,57.7070121 C31.8929679,57.5210563 32,57.2629789 32,57 C32,56.7370211 31.8929679,56.4790437 31.7070121,56.2929879 Z" id="Path"></path>
            <path d="M21.9082191,6.65679228 C21.6611818,6.10761195 20.9927815,5.85244599 20.4149577,6.08737614 C18.4087326,6.90297657 16.9617836,8.27782113 16.340606,9.9587999 C15.7181767,11.6431333 15.9519006,13.5344779 17.0165164,15.428095 C17.2214516,15.7926641 17.6143672,16 18.02071,16 C18.2017493,16 18.385292,15.9587709 18.5559764,15.8719842 C19.1100181,15.5903061 19.3190497,14.9348607 19.0228553,14.407864 C18.2561407,13.0440571 18.0758979,11.7884632 18.4870199,10.6758184 C18.894273,9.57388671 19.8965321,8.65072269 21.3093442,8.07654518 C21.8869404,7.84193967 22.1550288,7.20629725 21.9082191,6.65679228 Z" id="Path"></path>
            <path d="M25.0244537,5 L24.9698067,5.00010003 C24.4311435,5.00330083 23.9967975,5.4536134 24,6.00595149 C24.0031405,6.55618905 24.4393405,7 24.9754665,7 C24.9774182,7 24.9793699,7 24.9813216,7 L25.0244537,6.99989997 C25.5632144,6.99989997 26,6.55218805 26,5.99994999 C26,5.44771193 25.5632144,5 25.0244537,5 Z" id="Path"></path>
        </g>
    </g>
</svg>