<?xml version="1.0" encoding="UTF-8"?>
<svg width="44px" height="17px" viewBox="0 0 44 17" version="1.1" xmlns="http://www.w3.org/2000/svg" xmlns:xlink="http://www.w3.org/1999/xlink">
    <!-- Generator: Sketch 61.2 (89653) - https://sketch.com -->
    <title>Rectangle 2</title>
    <desc>Created with Sketch.</desc>
    <g id="Page-1" stroke="none" stroke-width="1" fill="none" fill-rule="evenodd">
        <g id="ПОВТОР-ЗАПИСИ-ПОДТВЕРЖДЕНИЕ" transform="translate(-188.000000, -340.000000)" fill="#D8D8D8">
            <g id="Rectangle-2" transform="translate(188.000000, 340.000000)">
                <path d="M1.73901068,0.987847084 L21.9047502,12.4430194 L21.9047502,12.4430194 L42.2573358,0.981387593 C42.8198999,0.664577597 43.5327735,0.863800661 43.8495835,1.42636476 C43.9481943,1.60146938 44,1.79903802 44,2 L44,2.53423083 C44,3.43935967 43.510763,4.27379694 42.7209117,4.71582991 L21.7660587,16.4430194 L21.7660587,16.4430194 L1.25925641,4.71988008 C0.48054183,4.27471172 5.53937452e-16,3.44647766 0,2.54949869 L0,2 C-7.87313649e-17,1.35710962 0.521165628,0.835943989 1.16405601,0.835943989 C1.365627,0.835943989 1.56374363,0.888286426 1.73901068,0.987847084 Z" id="Rectangle"></path>
            </g>
        </g>
    </g>
</svg>