<?xml version="1.0" encoding="UTF-8"?>
<svg width="39px" height="22px" viewBox="0 0 39 22" version="1.1" xmlns="http://www.w3.org/2000/svg" xmlns:xlink="http://www.w3.org/1999/xlink">
    <!-- Generator: Sketch 61.2 (89653) - https://sketch.com -->
    <title>vk-social-network-logo</title>
    <desc>Created with Sketch.</desc>
    <g id="Page-1" stroke="none" stroke-width="1" fill="none" fill-rule="evenodd">
        <g id="Запись-подтверждена" transform="translate(-142.000000, -387.000000)" fill="#000000" fill-rule="nonzero">
            <g id="vk-social-network-logo" transform="translate(142.000000, 387.000000)">
                <path d="M38.7931647,19.8684147 C38.7459402,19.7677892 38.7019161,19.6843214 38.6610214,19.6174487 C37.9843737,18.4125442 36.691318,16.9336093 34.7826366,15.1802221 L34.7423109,15.1400703 L34.7221124,15.1203812 L34.7017006,15.1001998 L34.6812177,15.1001998 C33.8149607,14.2837338 33.2664024,13.7347587 33.0366807,13.4536964 C32.616354,12.9182927 32.5221895,12.3763494 32.7519112,11.8272336 C32.9142099,11.4123555 33.5238614,10.5361893 34.5794432,9.19753942 C35.1346869,8.4880979 35.5744297,7.91950396 35.8991693,7.49112476 C38.2412637,4.41258873 39.256662,2.44536342 38.9451509,1.58867534 L38.8241736,1.38847908 C38.742882,1.26795348 38.5330742,1.15769436 38.1950349,1.05713916 C37.8562132,0.956794916 37.4231558,0.940199793 36.8950804,1.00707251 L31.0472056,1.04701332 C30.9524721,1.01382307 30.8171994,1.01691708 30.6409609,1.05713916 C30.4649358,1.09736124 30.3768877,1.11754259 30.3768877,1.11754259 L30.2751131,1.16782019 L30.1943194,1.22822363 C30.1266119,1.26816444 30.052148,1.33841244 29.9708564,1.438827 C29.8899915,1.53888997 29.8223552,1.65632156 29.768303,1.79013732 C29.1316254,3.40963854 28.4077532,4.91536472 27.595335,6.30724553 C27.094428,7.13721266 26.6344156,7.85649875 26.2143023,8.46552572 C25.794758,9.07434173 25.4427788,9.52290229 25.1587205,9.8104339 C24.8742354,10.0982468 24.6174877,10.3288205 24.3869125,10.502999 C24.156693,10.6772478 23.9809524,10.7508711 23.8592639,10.7239392 C23.7372909,10.6970073 23.6224301,10.6702863 23.5136857,10.6435653 C23.3242897,10.5230397 23.171948,10.3591277 23.0570871,10.1516887 C22.9417285,9.94424966 22.864064,9.68315774 22.8234538,9.36862389 C22.7830569,9.0538791 22.7591602,8.78315356 22.7523325,8.55553316 C22.7460027,8.32819404 22.7489187,8.00662836 22.7626451,7.59175028 C22.7767271,7.17666124 22.7830569,6.89580987 22.7830569,6.74856331 C22.7830569,6.23988058 22.793085,5.68781146 22.8132123,5.09221529 C22.8336953,4.49661912 22.8502665,4.02471288 22.8641352,3.67705911 C22.8779327,3.32905375 22.8843336,2.96086702 22.8843336,2.5727099 C22.8843336,2.18455278 22.8604368,1.88014477 22.8132123,1.65920461 C22.7665568,1.43854572 22.6949377,1.22435612 22.6005598,1.01670612 C22.5056129,0.809267082 22.3666419,0.648800677 22.184287,0.534884999 C22.0015765,0.421109958 21.7744151,0.330821236 21.5040832,0.263737559 C20.7865408,0.103200835 19.8728459,0.0163577106 18.7625718,0.00285659325 C16.244808,-0.0238643682 14.6270126,0.13688331 13.9095413,0.484888674 C13.6252696,0.63192428 13.368024,0.832823719 13.1380178,1.08695413 C12.8942852,1.38151757 12.8602892,1.54226525 13.0362433,1.56870493 C13.8485903,1.68901958 14.4236769,1.97683246 14.762143,2.43186231 L14.8841159,2.67298382 C14.9789917,2.84695135 15.0737252,3.15494559 15.1685299,3.59654463 C15.2631923,4.03814368 15.3242854,4.52664505 15.3511693,5.06176746 C15.4187345,6.03898114 15.4187345,6.87548787 15.3511693,7.57135796 C15.2833907,8.26750933 15.2193816,8.80945262 15.1582884,9.19760974 C15.0971952,9.58576686 15.0058755,9.90030071 14.8841159,10.141141 C14.762143,10.3820515 14.6809936,10.5292981 14.6403122,10.58274 C14.599702,10.6361819 14.5658483,10.6698644 14.5389644,10.6830842 C14.3630104,10.749746 14.1800154,10.7837098 13.9906195,10.7837098 C13.8009391,10.7837098 13.5709329,10.6899051 13.3002454,10.5024365 C13.029629,10.3149678 12.7487711,10.0574622 12.4576718,9.72949751 C12.1665724,9.40146255 11.8382767,8.94305742 11.4726423,8.35421182 C11.1072923,7.76536621 10.728216,7.0694258 10.3356266,6.26639059 L10.0108158,5.68401427 C9.80776458,5.30935826 9.53039165,4.76382874 9.17841252,4.04791793 C8.82622002,3.33172584 8.51492224,2.63894976 8.24430583,1.96973031 C8.13613039,1.68866799 7.9736183,1.47468934 7.75705405,1.32744278 L7.65542176,1.26703934 C7.58785656,1.21359742 7.47939663,1.15685054 7.33061095,1.09637678 C7.1816119,1.03597334 7.02614082,0.992657259 6.86355761,0.966006616 L1.29981223,1.00594742 C0.731268839,1.00594742 0.345507102,1.1332939 0.142384771,1.38763526 L0.061093166,1.50794991 C0.0204829241,1.57496326 0,1.68198775 0,1.82930463 C0,1.97655119 0.0406102419,2.15726927 0.121901847,2.37124791 C0.934106685,4.25859161 1.81736167,6.07878131 2.77166679,7.83209829 C3.72597191,9.58541527 4.55524585,10.9977587 5.25899076,12.0678629 C5.96287792,13.1387406 6.68034923,14.1494258 7.41140471,15.0994263 C8.14246018,16.0497784 8.62636926,16.6588054 8.86313195,16.9263666 C9.10017913,17.19442 9.2863746,17.3948272 9.42171836,17.528643 L9.92945307,18.0103938 C10.254335,18.3316782 10.7314164,18.71646 11.3609108,19.1647393 C11.9905473,19.6132999 12.6876068,20.0548989 13.4524449,20.4902396 C14.2174252,20.9248772 15.1073656,21.2795628 16.1227639,21.5538745 C17.1380199,21.8284676 18.1261788,21.9386564 19.0873827,21.8854957 L21.4225783,21.8854957 C21.8961747,21.8450627 22.2549815,21.6978161 22.4988563,21.4436857 L22.5796501,21.3430602 C22.6339867,21.2631786 22.6848384,21.1390668 22.7317785,20.9720608 C22.7792875,20.8047735 22.8028997,20.6204692 22.8028997,20.4199916 C22.7890311,19.8445768 22.8333396,19.3259792 22.9346163,18.8642691 C23.0358219,18.4026997 23.1511806,18.0546943 23.2801946,17.8203234 C23.4091374,17.5861634 23.5546515,17.3885689 23.7165946,17.2283837 C23.8788934,17.067847 23.9945365,16.9705968 24.0623862,16.9371253 C24.1298092,16.9034428 24.183648,16.8805893 24.2242582,16.8668773 C24.5491401,16.7598528 24.9314881,16.863502 25.3718709,17.1783171 C25.8118982,17.4928509 26.2246149,17.881219 26.6106611,18.3427885 C26.996494,18.8047798 27.4600624,19.3230962 28.0014374,19.898511 C28.5431681,20.4741367 29.0168357,20.9020237 29.4227959,21.1835079 L29.8287561,21.4244185 C30.0998703,21.5851662 30.4518495,21.7324127 30.8851202,21.8662285 C31.3176086,22 31.6965427,22.0334455 32.0219225,21.9665728 L37.2199623,21.8864099 C37.734098,21.8864099 38.1341551,21.8022388 38.4179289,21.6352328 C38.7022717,21.4679455 38.8711847,21.2836412 38.9256636,21.0831637 C38.9800003,20.8824752 38.9829162,20.6547845 38.9359762,20.4002322 C38.8878271,20.1463127 38.8403892,19.968759 38.7931647,19.8684147 Z" id="Path"></path>
            </g>
        </g>
    </g>
</svg>