<?xml version="1.0" encoding="UTF-8"?>
<svg width="46px" height="59px" viewBox="0 0 46 59" version="1.1" xmlns="http://www.w3.org/2000/svg" xmlns:xlink="http://www.w3.org/1999/xlink">
    <!-- Generator: Sketch 61.2 (89653) - https://sketch.com -->
    <title>facial</title>
    <desc>Created with Sketch.</desc>
    <g id="Page-1" stroke="none" stroke-width="1" fill="none" fill-rule="evenodd">
        <g id="facial" fill="#F54D92" fill-rule="nonzero">
            <path d="M25.1708482,27 C24.7129468,27 24.3419174,27.4328708 24.3419174,27.967093 L24.3419174,29.0832474 C24.3419174,29.6249484 23.964146,30.065685 23.4998342,30.065685 C23.035633,30.065685 22.6578616,29.6249484 22.6578616,29.0832474 L22.6578616,27.967093 C22.6578616,27.4328708 22.2868322,27 21.8289308,27 C21.3710294,27 21,27.4328708 21,27.967093 L21,29.0832474 C21,30.6915876 22.1213776,32 23.4999447,32 C24.8785119,32 26,30.6917165 26,29.0832474 L26,27.967093 C25.9998895,27.4328708 25.628639,27 25.1708482,27 Z" id="Path"></path>
            <path d="M33.7866727,24.3333763 C33.4625332,23.9392147 32.8854722,23.8871065 32.4984072,24.2170012 C31.0536815,25.447376 28.9445796,25.4457631 27.5015612,24.2170012 C27.1143743,23.8871065 26.5375572,23.9392147 26.2132957,24.3333763 C25.8890343,24.7274138 25.9402527,25.3142518 26.3276835,25.6440226 C28.4519071,27.4531709 31.5509881,27.4508137 33.6726507,25.6440226 C34.0597157,25.3142518 34.1109341,24.7274138 33.7866727,24.3333763 Z" id="Path"></path>
            <path d="M19.7866932,24.3332988 C19.4624309,23.9392288 18.8853684,23.8871327 18.4983023,24.2169508 C17.0534509,25.4470394 14.9444654,25.4454269 13.5015652,24.2169508 C13.1144992,23.8871327 12.5374366,23.9392288 12.2132963,24.3332988 C11.889034,24.7272447 11.9402525,25.3139463 12.3276844,25.6436403 C13.3549825,26.518359 14.6591048,27 16.0000557,27 C17.3410066,27 18.6451289,26.518359 19.672427,25.6436403 C20.0597369,25.3139463 20.1109555,24.7271207 19.7866932,24.3332988 Z" id="Path"></path>
            <path d="M23.0000534,32 C21.897349,32 21,33.1116355 21,34.4782551 L21,35.5218772 C21,36.8882322 21.8971354,38 23.0000534,38 C24.1027578,38 25,36.8883645 25,35.5218772 L25,34.4782551 C24.9998932,33.1117678 24.1027578,32 23.0000534,32 Z M23.3980564,35.5217449 C23.3980564,35.7937985 23.219505,36.0150406 22.9999466,36.0150406 C22.7803882,36.0150406 22.6018368,35.7937985 22.6018368,35.5217449 L22.6018368,34.4781228 C22.6018368,34.2060692 22.7803882,33.9848271 22.9999466,33.9848271 C23.219505,33.9848271 23.3980564,34.2060692 23.3980564,34.4781228 L23.3980564,35.5217449 Z" id="Shape"></path>
            <path d="M44.5149,50.535216 C44.0188564,48.7292602 42.7831027,47.1860392 41.1240845,46.3017293 C40.4769814,45.9566018 39.815781,45.6352127 39.1527468,45.3360638 C42.1259137,38.4831806 44.572894,29.1421531 44.0157618,21.7178218 C44.8951848,19.8312018 46.1033168,18.636911 45.9929448,16.3677123 C45.9923717,16.3561889 45.7275019,10.8952238 45.7266996,10.8837003 C45.6775308,9.71660485 45.2849824,8.6052829 44.5907735,7.66911745 C44.397995,7.40914831 44.2919783,7.07162633 44.2919783,6.71877815 L44.2919783,1.99347038 C44.2919783,0.895515635 43.403501,0.00221743896 42.3114716,0.00221743896 L37.5901178,0.00221743896 C36.3578025,0.00221743896 35.355171,1.01028924 35.355171,2.24929107 L35.355171,4.36027271 C34.4170663,3.61217004 33.4218846,2.94899523 32.3787948,2.38238697 C31.9613755,2.15560539 31.4396587,2.31197867 31.2139864,2.73200859 C30.9883141,3.15192327 31.1440727,3.67624045 31.5617212,3.90313727 C32.9221734,4.64213641 34.1967808,5.55848152 35.3550563,6.63016279 L35.3550563,8.17960649 C34.4483556,9.43162982 34.55506,10.2280158 34.2909924,10.7485302 C33.6817115,11.9491589 32.2952422,13.0253344 31.2789718,13.7442827 C29.6266011,14.9430677 29.8365715,16.7894708 30.9774259,17.8293473 C27.0660397,16.0876924 22.6788964,13.2571863 19.7543252,10.0716425 C19.2452158,9.51909284 18.3430995,9.61992307 17.972213,10.2824065 C17.6087762,10.9323293 16.6472906,12.4875347 15.0309083,13.9988358 C14.5583603,13.5686652 11.8402065,11.8831295 11.5267409,10.1551875 C11.3982601,9.44949118 11.0586628,8.75047842 10.645255,8.17949125 L10.645255,6.63027802 C15.5212213,2.12091979 22.0800452,0.726236088 27.9875255,2.43401205 C28.4434546,2.56607084 28.920014,2.30103139 29.0511309,1.84216743 C29.1823624,1.38353393 28.9188679,0.904619164 28.4624803,0.772790844 C22.4435966,-0.967250792 15.8258617,0.232456061 10.645255,4.35877466 L10.645255,2.24929107 C10.645255,1.01028924 9.64262345,0.00221743896 8.41030815,0.00221743896 L3.68849587,0.00221743896 C2.59646647,0.00221743896 1.70798914,0.895515635 1.70798914,1.99347038 C1.61939356,6.51296925 1.92162714,6.97817111 1.40907933,7.66911745 C0.712234373,8.60920087 0.319227569,9.72570838 0.272809443,10.8977589 C0.253898354,11.3747147 0.623180338,11.7767681 1.09744752,11.7957818 C1.57033934,11.814104 1.97159826,11.4435097 1.99062396,10.9666692 C2.07601039,8.81132226 3.42717901,8.69378303 3.42717901,6.71889339 L3.42717901,1.99347038 C3.42717901,1.84850533 3.54431315,1.73073562 3.68849587,1.73073562 L8.4098497,1.73073562 C8.68938997,1.73073562 8.92560666,1.96823402 8.92560666,2.24929107 C8.92560666,10.051246 8.72480528,8.26603239 9.44537506,9.48705764 C10.0018195,10.4289848 9.71758013,10.6282253 10.1775207,11.5344298 C11.0596943,13.2726277 13.1120632,14.741292 13.7198541,15.1500289 C13.7770459,15.2008473 14.0179617,15.3511132 14.1404826,15.6038225 C14.3054102,15.962202 14.0571592,16.3181615 14.0601391,16.306638 C13.9459849,16.5024215 13.7886217,16.6296405 13.6120036,16.704082 C13.1014042,16.9191096 12.6578533,16.6979746 12.2047894,16.4582867 C10.5523041,15.5488557 9.78417008,14.60278 8.80216883,13.6224798 C7.86990947,12.6724862 6.28080497,13.0980474 5.90476084,14.2076408 L5.25238559,16.1435812 C4.61605611,17.582054 5.30568047,18.3747524 6.83851016,23.0040698 C7.01604517,23.5146741 6.78097461,24.0695284 6.2965069,24.2965405 C5.86120803,24.5005056 5.34143962,24.327769 5.11313121,23.9030145 L3.61606067,21.1181412 L3.61606067,21.118026 C2.53022035,18.8746399 1.64460834,18.0859747 1.72414953,16.452064 L1.78924952,15.1153433 C1.81240128,14.6385028 1.44690151,14.2332229 0.972748944,14.2098302 C0.499284055,14.1888576 0.0953890484,14.5540358 0.0721226789,15.0307611 L0.00702268923,16.3675971 C-0.103120075,18.6376024 1.10581424,19.8331608 1.98420565,21.7177066 C1.42753197,29.1407703 3.87130306,38.4771884 6.84733534,45.336179 C6.18372805,45.6353279 5.5222984,45.956717 4.8757684,46.3014988 C3.21709401,47.1859239 1.98122572,48.7289145 1.48506752,50.5348703 L0.144787104,55.4141314 C-0.0913149712,56.2737811 0.0814063042,57.1737629 0.618595832,57.883262 C1.15578536,58.5931068 1.97240055,59 2.85950252,59 L29.8973162,59 C30.3721564,59 30.7569111,58.6131576 30.7569111,58.1357409 C30.7569111,57.6583242 30.3721564,57.2714818 29.8973162,57.2714818 L9.09660875,57.2714818 L9.09660875,53.0385713 C9.09660875,52.5611545 8.71185405,52.1743122 8.23701381,52.1743122 C7.76217357,52.1743122 7.37741888,52.5611545 7.37741888,53.0385713 L7.37741888,57.2714818 L2.85938791,57.2714818 C2.13434823,57.2714818 1.60873458,56.5777699 1.80185691,55.8747239 L3.14213733,50.9954628 C3.51290928,49.6457205 4.43840649,48.4914161 5.68103693,47.8288175 C9.62027398,45.7283222 14.236528,44.5045313 16.2469486,44.0340286 C16.2469486,44.0457826 16.2469486,44.7649614 16.2469486,44.7495199 C16.2469486,45.2888176 16.3797847,45.8183204 16.6077493,46.2706159 C17.0655122,47.1752071 18.9749591,49.4601929 21.093001,50.9814042 C22.233397,51.8001456 23.7659974,51.8006065 24.9066226,50.9814042 C26.5216296,49.8214532 28.0010498,48.2816892 29.1174917,46.7233725 C29.739953,45.8549649 29.7746806,45.0706786 29.752675,44.0336829 C33.1850949,44.8358306 37.170177,46.1496197 40.3185867,47.8287022 C41.5614464,48.4914161 42.486829,49.6454901 42.8576009,50.9953475 L44.1978813,55.8746087 C44.3910037,56.5771937 43.8659631,57.2713666 43.1402357,57.2713666 L38.6227778,57.2713666 L38.6227778,53.038456 C38.6227778,52.5610393 38.2380231,52.1741969 37.7631829,52.1741969 C37.2883427,52.1741969 36.903588,52.5610393 36.903588,53.038456 L36.903588,57.2714818 L33.9087592,57.2714818 C33.433919,57.2714818 33.0491643,57.6583242 33.0491643,58.1357409 C33.0491643,58.6131576 33.433919,59 33.9087592,59 L43.140465,59 C45.0015453,59 46.3511093,57.2196263 45.8554096,55.4143619 L44.5149,50.535216 Z M32.2798841,15.1499137 C33.816496,14.1184493 35.7780917,12.3853217 36.1446229,10.5604674 C36.4092636,9.24183852 37.0741316,9.10159808 37.0741316,8.47414598 L37.0741316,2.24929107 C37.0741316,1.96823402 37.3103483,1.73073562 37.5898886,1.73073562 L42.3111278,1.73073562 C42.4553105,1.73073562 42.5724446,1.84850533 42.5724446,1.99347038 L42.5724446,6.71877815 C42.5724446,8.74529287 43.8463643,8.59790789 44.0108335,10.9961692 C44.0193148,11.111519 44.0206902,11.104144 44.0201171,11.0721088 C44.0313492,11.34291 44.0821226,12.4756656 44.2755887,16.4524097 C44.3091702,17.1404752 44.1545578,17.824277 43.8288286,18.4302955 L40.8864924,23.9030145 C40.6579548,24.3278843 40.1378426,24.5001599 39.7032314,24.2966557 C39.2172737,24.0686065 38.9841515,23.5130608 39.1611135,23.0040698 L40.8310199,18.1999416 C41.0723942,17.5055382 41.0237984,16.7688438 40.7472381,16.1436964 C40.7433412,16.1320577 40.0852353,14.174338 40.0596767,14.1193711 C39.5422006,13.0049378 38.0677087,12.7358652 37.1973402,13.622595 C36.5523002,14.2803538 36.5822141,14.2484338 36.55826,14.275053 C35.1449713,15.8498483 33.4865262,16.6206522 33.4160394,16.6529178 C32.8620018,16.9071253 32.1771912,16.8360255 31.8731238,16.1808019 C31.7350155,15.8824597 32.2344975,15.2111032 32.2798841,15.1499137 Z M38.2802006,20.2989389 C37.896592,20.0072802 36.2807828,19.941827 32.6236075,18.5163757 C33.1478458,18.5534812 33.6610813,18.4405513 34.1297324,18.2252932 C34.3376398,18.1301095 36.2029608,17.2446472 37.8216353,15.4475645 C38.3047277,14.9972279 38.413839,14.7618037 38.4906294,14.8339405 L39.1326895,16.7391133 C39.1683341,16.8442072 39.3658117,17.1755065 39.2081047,17.6296459 L38.2802006,20.2989389 Z M6.86716333,16.7391133 L7.50910882,14.8340558 C7.64584172,14.7052236 8.2821712,15.7990299 9.90107499,17.0151 C8.86474734,17.3250809 8.38199882,17.330497 8.16732932,17.4239522 C7.12481258,17.8785525 7.42933841,19.057978 7.37890884,19.3179472 C6.62842516,17.1534967 6.63300967,17.4295987 6.86716333,16.7391133 Z M16.2470632,42.2597624 C14.8821411,42.5636358 11.751611,43.3359378 8.43047998,44.6643616 C5.5884299,38.1221508 3.7883235,30.6592159 3.6299288,24.7776447 C4.34373644,26.0381954 6.02418723,26.555368 7.37776272,25.6609175 C7.5269884,26.5648173 6.36768136,32.927147 11.9393465,38.3180495 C13.2131516,39.5505982 14.6690762,40.5449571 16.2470632,41.2769269 L16.2470632,42.2597624 L16.2470632,42.2597624 Z M27.347643,46.2150729 C26.3727477,47.4726275 25.192925,48.6517074 23.9074295,49.5749665 C23.3986639,49.94026 22.725773,49.9633069 22.1962625,49.6435311 C20.9427438,48.8858639 18.6378833,46.4182314 18.1608654,45.5241266 C17.9013823,45.0373758 17.9662531,44.9501433 17.9662531,41.9542756 C21.1469836,42.9969177 24.7500617,43.0303358 28.0335998,41.9541603 C28.0335998,45.4612085 28.1926821,45.1251846 27.347643,46.2150729 Z M22.6980367,41.0163816 C22.6970052,41.0163816 22.6860024,41.0161511 22.6849708,41.0161511 L22.6849708,41.0162664 C22.679011,41.0161511 22.6729365,41.0160359 22.6669767,41.0159207 L22.6669767,41.0158054 C15.2806493,40.8600083 9.09672336,35.0581794 9.09672336,27.6625415 C9.09832794,17.6239994 9.09809871,19.2083591 9.09809871,18.9905658 C10.0096132,18.8139113 10.9050819,18.541612 11.769949,18.1779318 C14.2115424,19.3627734 16.1505594,17.3003055 15.8995577,15.5410197 C17.4123301,14.1931212 18.4510647,12.7722793 19.0467066,11.837151 C22.8304143,15.7524751 29.5096962,19.873032 36.9027857,21.6746089 L36.9038172,27.6624263 C36.9034733,35.3327834 30.2340482,41.2495011 22.6980367,41.0163816 Z M29.7527896,42.2593014 L29.7527896,41.2769269 C31.3311205,40.5449571 32.7870451,39.5505982 34.0608502,38.3179343 C39.6351514,32.9244966 38.472406,26.5697724 38.622434,25.6610327 C39.9580153,26.5447665 41.6448844,26.0550196 42.3699241,24.7775295 C42.2115294,30.6588702 40.4116522,38.1212289 37.5696021,44.6633245 C34.2387291,43.3300608 31.1086574,42.5605245 29.7527896,42.2593014 Z" id="Shape"></path>
        </g>
    </g>
</svg>