<?xml version="1.0" encoding="UTF-8"?>
<svg width="59px" height="59px" viewBox="0 0 59 59" version="1.1" xmlns="http://www.w3.org/2000/svg" xmlns:xlink="http://www.w3.org/1999/xlink">
    <!-- Generator: Sketch 61.2 (89653) - https://sketch.com -->
    <title>combs</title>
    <desc>Created with Sketch.</desc>
    <g id="Page-1" stroke="none" stroke-width="1" fill="none" fill-rule="evenodd">
        <g id="карточка-салона-+-дизайн-ногтей" transform="translate(-303.000000, -1137.000000)" fill="#F54D92" fill-rule="nonzero">
            <g id="combs" transform="translate(303.000000, 1137.000000)">
                <path d="M58.2297817,0.768728516 C58.2269008,0.765962891 58.2237895,0.763542969 58.2210239,0.760777344 C57.733006,0.277138672 57.0604978,0 56.3740463,0 L56.3705893,0 C55.7772471,0 55.1964656,0.203964844 54.7355278,0.573751953 C48.4611279,5.58529492 42.1635659,10.758166 36.0170762,15.9483223 C34.5224856,17.2102539 33.0266273,18.4820957 31.5321519,19.7609668 L14.4684669,2.69752148 C12.7835089,1.01279492 10.0420816,1.01302539 8.35723893,2.69752148 L0.253146638,10.8017246 C-0.0843750303,11.1393613 -0.0843750303,11.6864941 0.253146638,12.0240156 C0.590668305,12.3614219 1.13791665,12.3614219 1.47532308,12.0240156 L7.13506249,6.36439453 L8.37187371,7.60120508 L2.71224954,13.2608262 C2.37472787,13.5984629 2.37472787,14.1455957 2.71224954,14.4831172 C2.88095275,14.6518203 3.10220287,14.7361719 3.32333776,14.7361719 C3.54447265,14.7361719 3.76572277,14.6518203 3.93442598,14.4831172 L9.59416539,8.82349609 L10.8309766,10.0603066 L5.1712372,15.7199277 C4.83371553,16.0575645 4.83371553,16.6046973 5.1712372,16.9422187 C5.33994042,17.1109219 5.56119054,17.1952734 5.78232542,17.1952734 C6.00346031,17.1952734 6.22471043,17.1109219 6.39341365,16.9422187 L12.0531531,11.2824824 L13.2899643,12.519293 L7.6303401,18.1789141 C7.29281843,18.5165508 7.29281843,19.0636836 7.6303401,19.4012051 C7.79904332,19.5699082 8.02029344,19.6542598 8.24142832,19.6542598 C8.46256321,19.6542598 8.68381333,19.5699082 8.85251655,19.4012051 L14.5121407,13.741584 L15.7489519,14.9783945 L10.0893278,20.6380156 C9.7518061,20.9756523 9.7518061,21.5227852 10.0893278,21.8603066 C10.258031,22.0290098 10.4792811,22.1133613 10.700416,22.1133613 C10.9215509,22.1133613 11.142801,22.0290098 11.3115042,21.8603066 L16.9711284,16.2006855 L18.2079396,17.4374961 L12.5483154,23.0971172 C12.2107938,23.4347539 12.2107938,23.9818867 12.5483154,24.3194082 C12.7170186,24.4881113 12.9382688,24.5724629 13.1594037,24.5724629 C13.3805385,24.5724629 13.6017887,24.4881113 13.7704919,24.3194082 L19.430116,18.6597871 L20.6669273,19.8965977 L15.0073031,25.5562188 C14.6697814,25.8938555 14.6697814,26.4409883 15.0073031,26.7785098 C15.1760063,26.9472129 15.3972564,27.0315645 15.6183913,27.0315645 C15.8395262,27.0315645 16.0607763,26.9472129 16.2294795,26.7785098 L21.8891037,21.1188887 L23.1260302,22.3558145 L17.466406,28.0154355 C17.1288843,28.3530723 17.1288843,28.9002051 17.466406,29.2377266 C17.6351092,29.4064297 17.8563593,29.4907813 18.0774942,29.4907813 C18.2986291,29.4907813 18.5198792,29.4064297 18.6885824,29.2377266 L24.3483218,23.5779902 L25.6286917,24.8583594 C22.9749578,27.1693848 20.3349369,29.494123 17.7246464,31.8217422 C17.723494,31.8217422 17.723494,31.8217422 17.723494,31.8230098 C16.9480815,32.5126875 16.1022607,33.3071133 15.2678482,34.0595938 C14.7566682,34.4293809 14.8540413,35.079418 15.1076723,35.3330488 C15.1076723,35.3330488 15.1076723,35.3342012 15.1088246,35.3342012 C15.9408173,36.3413496 16.4006027,37.6273652 16.4006027,38.9570547 C16.4006027,40.5115664 15.8025359,41.9658242 14.7159904,43.051332 C14.7050432,43.0622793 12.1206804,45.6467559 12.1093875,45.6579336 C8.35101627,49.5038809 1.73229588,46.879418 1.72849314,41.4325195 C1.73079783,38.1256387 4.40158639,35.3943535 7.7758812,35.3919336 C9.61375524,35.3930859 11.329596,36.21125 12.4830927,37.6343945 C12.7959542,38.0199687 13.3703979,38.0616836 13.7345387,37.7311914 C13.7391481,37.7277344 13.7426051,37.7242773 13.7472145,37.719668 L13.7552809,37.7126387 C14.1600995,37.3487285 14.1315214,36.6929297 13.6792262,36.3690059 C12.2019207,34.649709 10.0527984,33.663418 7.78164292,33.663418 L7.77011947,33.663418 C3.44905853,33.663418 -0.00497850272,37.1820996 5.38670318e-06,41.4325195 C-0.00371092391,44.6353437 1.953546,47.4643477 4.84904171,48.6404297 C6.56833952,49.3366758 8.45173117,49.3846133 10.1530524,48.839209 C8.5314734,53.883709 12.3055165,59 17.5509881,59 L17.5602068,59 C21.846467,59 25.3396837,55.5300625 25.3349591,51.2262891 C25.3372638,49.1808789 24.5490602,47.2507031 23.1190009,45.789416 C23.1198075,45.7884941 24.883701,43.7833008 24.883701,43.7833008 C27.9973355,40.3185488 31.0772064,36.8380098 34.1197412,33.3490586 L35.4218904,34.651207 L29.7622662,40.3108281 C29.4247445,40.6484648 29.4247445,41.1955977 29.7622662,41.5331191 C29.9310846,41.7018223 30.1523348,41.7861738 30.3734697,41.7861738 C30.5946045,41.7861738 30.8158547,41.7018223 30.9846731,41.5331191 L36.6442973,35.873498 L37.8811085,37.1103086 L32.2214843,42.7699297 C31.8839627,43.1075664 31.8839627,43.6546992 32.2214843,43.9922207 C32.3903028,44.1609238 32.6115529,44.2452754 32.8326878,44.2452754 C33.0538227,44.2452754 33.2750728,44.1609238 33.4438912,43.9922207 L39.1035154,38.3325996 L40.3402114,39.5692949 L34.6805872,45.228916 C34.3430656,45.5665527 34.3430656,46.1136855 34.6805872,46.451207 C34.8494057,46.6199102 35.0706558,46.7042617 35.2917907,46.7042617 C35.5129256,46.7042617 35.7341757,46.6199102 35.9029941,46.451207 L41.5626183,40.7915859 L42.7993143,42.0282813 L37.1396901,47.6880176 C36.8021685,48.0256543 36.8021685,48.5727871 37.1396901,48.9103086 C37.3085086,49.0790117 37.5297587,49.1633633 37.7508936,49.1633633 C37.9720285,49.1633633 38.1932786,49.0790117 38.362097,48.9103086 L44.0217212,43.2505723 L45.2585324,44.4873828 L39.5989083,50.1470039 C39.2613866,50.4846406 39.2613866,51.0317734 39.5989083,51.3692949 C39.7677267,51.537998 39.9889768,51.6223496 40.2101117,51.6223496 C40.4312466,51.6223496 40.6524967,51.537998 40.8213152,51.3692949 L46.4809393,45.7096738 L47.7176353,46.9463691 L42.0580112,52.6059902 C41.7204895,52.943627 41.7204895,53.4907598 42.0580112,53.8282813 C42.2268296,53.9969844 42.4480797,54.0813359 42.6692146,54.0813359 C42.8903495,54.0813359 43.1115996,53.9969844 43.2804181,53.8282813 L48.9400422,48.1686602 L50.1767382,49.4053555 L44.5171141,55.0649766 C44.1795924,55.4026133 44.1795924,55.9497461 44.5171141,56.2872676 C44.6859325,56.4559707 44.9071826,56.5403223 45.1283175,56.5403223 C45.3494524,56.5403223 45.5707025,56.4559707 45.739521,56.2872676 L51.3991451,50.6276465 L52.6358411,51.8643418 L46.976217,57.5239629 C46.6386953,57.8615996 46.6386953,58.4087324 46.976217,58.7462539 C47.1450354,58.914957 47.3662855,58.9993086 47.5874204,58.9993086 C47.8085553,58.9993086 48.0298054,58.914957 48.1986239,58.7462539 L54.4685296,52.4762363 C54.4687601,52.4760059 54.4691058,52.4756602 54.4694515,52.4754297 C54.4697972,52.4751992 54.4700277,52.4748535 54.4702581,52.4745078 L56.3027162,50.6420508 C57.1189217,49.8258457 57.5684512,48.7406836 57.5684512,47.5863809 C57.5684512,46.4320781 57.1189217,45.346916 56.3028314,44.5307109 L39.2202479,27.4494043 C45.846689,19.719252 52.270548,11.965707 58.425565,4.26251953 C59.2607842,3.21722852 59.1764326,1.71526367 58.2297817,0.768728516 Z M8.35735417,5.14210352 L9.57953061,3.91992773 C10.5903671,2.9090918 12.2353387,2.9090918 13.2462904,3.91992773 L30.2166356,20.8903789 C29.1217932,21.8309219 28.0278727,22.774 26.9361416,23.7211113 L8.35735417,5.14210352 Z M55.080194,45.7538086 C55.5699404,46.2434395 55.8397042,46.8945137 55.8397042,47.5870723 C55.8397042,48.2796309 55.5699404,48.9307051 55.080194,49.4203359 L53.8580176,50.6425117 C53.2869157,50.0716406 36.4835452,33.2681641 35.2573356,32.0420703 C36.205715,30.9504551 37.1508679,29.8581484 38.0914113,28.7651504 L55.080194,45.7538086 Z M24.0789037,42.0909687 C23.6600265,41.7702715 22.5431744,41.2150723 22.3574165,39.6382051 C22.305561,39.2027344 21.9379631,38.8753535 21.5012246,38.8753535 C20.9790974,38.8753535 20.5811928,39.3288008 20.6404233,39.8411328 C20.6415757,39.8411328 20.6415757,39.8411328 20.6415757,39.8411328 C20.8063609,41.250334 21.5715176,42.4961328 22.7399948,43.2577168 C22.8010691,43.2981641 22.8621433,43.3395332 22.9255222,43.385627 C22.3260727,44.069543 21.831256,44.6453691 21.2638417,45.2720137 C21.1059705,45.4471699 21.0253064,45.6832852 21.0437439,45.9183633 C21.061029,46.1534414 21.1774158,46.3746914 21.3606386,46.5233437 C22.8110944,47.707377 23.605175,49.4114629 23.6065578,51.2261738 C23.6041378,54.5569082 20.920904,57.2690645 17.556865,57.2713691 C14.2318906,57.2669902 11.5071723,54.5872148 11.5071723,51.2261738 C11.5110903,48.4908555 13.2411049,47.0259961 13.3739702,46.8380488 L15.9379364,44.274084 C17.3504802,42.861541 18.1295802,40.9504941 18.1295802,38.9570547 C18.1307325,37.5004922 17.7135839,36.0934805 16.9254955,34.8905488 C17.6021522,34.2717402 18.1906544,33.7226484 18.8741099,33.1135195 L18.8775669,33.1089102 C37.6162998,16.4008477 55.5936787,2.03838086 55.931546,1.84490234 C55.6998096,2.07663867 21.9794475,35.7824629 21.823881,35.9577344 C21.5069863,36.3149609 21.5404043,36.8623242 21.8964787,37.1780664 C22.2543969,37.4968047 22.8025671,37.4594687 23.1168114,37.1054687 C23.2201767,36.9876992 56.9068903,3.31333398 57.1538377,3.06638672 C57.083199,3.19072461 43.1646075,20.8204316 24.0789037,42.0909687 Z" id="Shape"></path>
                <path d="M10.6825536,38.3216248 C7.84365687,35.4828844 2.99976,37.5284191 3,41.5029677 C3,42.7042963 3.46836937,43.8341044 4.31882638,44.6844305 C5.19616392,45.5616368 6.34818696,46 7.50069001,46 C8.65283306,46 9.80533611,45.5613968 10.6825536,44.6844305 C12.4390288,42.9283379 12.4392688,40.0778374 10.6825536,38.3216248 Z M9.4099282,43.4114614 C8.35714714,44.463749 6.64423288,44.463989 5.59145183,43.4114614 C3.90541811,41.7255693 5.08600172,38.8049883 7.50069001,38.8049883 C9.92233845,38.8051083 11.0882818,41.7333693 9.4099282,43.4114614 Z" id="Shape"></path>
                <path d="M17.5026332,47 C15.6531467,47 14.0643945,48.0619136 13.3563102,49.7714819 C12.6447479,51.4894456 13.0151009,53.3689632 14.3227302,54.6763859 C15.1912848,55.5447228 16.3101396,56 17.4655739,56 C18.0492877,56 18.6424762,55.883662 19.2169552,55.645709 C20.9335559,54.9344883 22,53.3446162 22,51.4965219 C21.9998801,49.0172042 19.9824874,47 17.5026332,47 Z M18.5283,53.9837553 C17.7235497,54.3169376 16.5303365,54.3398454 15.5944995,53.4042244 C14.6581827,52.4680037 14.6830088,51.2694829 15.0182215,50.4599147 C15.3507957,49.656943 16.1780934,48.7989206 17.5025133,48.7989206 C18.9904018,48.7989206 20.2008854,50.0090752 20.2008854,51.4965219 C20.2008854,52.8194163 19.3368882,53.648774 18.5283,53.9837553 Z" id="Shape"></path>
            </g>
        </g>
    </g>
</svg>