<?xml version="1.0" encoding="UTF-8"?>
<svg width="37px" height="58px" viewBox="0 0 37 58" version="1.1" xmlns="http://www.w3.org/2000/svg" xmlns:xlink="http://www.w3.org/1999/xlink">
    <!-- Generator: Sketch 61.2 (89653) - https://sketch.com -->
    <title>nail-polish copy</title>
    <desc>Created with Sketch.</desc>
    <g id="Page-1" stroke="none" stroke-width="1" fill="none" fill-rule="evenodd">
        <g id="карточка-салона-+-дизайн-ногтей" transform="translate(-53.000000, -1138.000000)" fill="#B8B8B8" fill-rule="nonzero">
            <g id="nail-polish-copy" transform="translate(53.000000, 1138.000000)">
                <path d="M19.3932143,29.2937419 L19.2957143,29.2825161 C18.3532143,29.1777419 17.6428571,28.3779032 17.6428571,27.4237097 L17.6428571,27.1290323 L18.5714286,27.1290323 C19.0849286,27.1290323 19.5,26.7099355 19.5,26.1935484 L19.5,20.5806452 C19.5,20.0642581 19.0849286,19.6451613 18.5714286,19.6451613 L17.6883571,19.6451613 L18.5705,0.979451613 C18.5825714,0.724064516 18.4897143,0.474290323 18.3151429,0.29 C18.1396429,0.104774194 17.8963571,0 17.6428571,0 L8.35714286,0 C8.10364286,0 7.86035714,0.104774194 7.68485714,0.29 C7.51028571,0.475225806 7.41742857,0.724064516 7.4295,0.979451613 L8.31164286,19.6451613 L7.42857143,19.6451613 C6.91507143,19.6451613 6.5,20.0642581 6.5,20.5806452 L6.5,26.1935484 C6.5,26.7099355 6.91507143,27.1290323 7.42857143,27.1290323 L8.35714286,27.1290323 L8.35714286,27.4237097 C8.35714286,28.3788387 7.64678571,29.1777419 6.70428571,29.2834516 L6.60771429,29.2946774 C2.84142857,29.7156452 0,32.913129 0,36.801 C0,37.2724839 0.0445714286,37.7439677 0.131857143,38.2014194 L3.731,57.2394516 C3.81364286,57.681 4.19714286,58 4.64285714,58 L21.3571429,58 C21.8028571,58 22.1863571,57.681 22.269,57.2394516 L25.8681429,38.2032903 C25.9554286,37.7449032 26,37.2734194 26,36.7317742 C26,32.913129 23.1585714,29.7156452 19.3932143,29.2937419 Z M17.6428571,25.2580645 L8.35714286,25.2580645 L8.35714286,21.516129 L17.6428571,21.516129 L17.6428571,25.2580645 Z M9.33121429,1.87096774 L16.6687857,1.87096774 L15.8284286,19.6451613 L10.1706429,19.6451613 L9.33121429,1.87096774 Z M24.0444286,37.8515484 L20.5892143,56.1290323 L5.41078571,56.1290323 L1.95557143,37.8496774 C1.89057143,37.5072903 1.85714286,37.1546129 1.85714286,36.7317742 C1.85714286,33.8673226 3.98728571,31.4696774 6.81385714,31.1534839 L6.91042857,31.1431935 C8.79357143,30.9317742 10.2142857,29.3330323 10.2142857,27.4237097 L10.2142857,27.1290323 L15.7857143,27.1290323 L15.7857143,27.4237097 C15.7857143,29.3339677 17.2064286,30.9317742 19.0895714,31.1422581 L19.1870714,31.1534839 C22.0127143,31.4696774 24.1428571,33.8682581 24.1428571,36.801 C24.1428571,37.1546129 24.1094286,37.5072903 24.0444286,37.8515484 L24.0444286,37.8515484 Z" id="Shape"></path>
                <path d="M36.7468894,51.4678814 L34.1536941,46.1934746 C33.997864,45.8774576 33.680704,45.6779661 33.3332947,45.6779661 L32.4166473,45.6779661 L32.4166473,21.440678 L35.1665894,21.440678 C35.6560791,21.440678 36.0594039,21.0500847 36.0823201,20.5522881 L36.9989674,0.976016949 C37.0108838,0.721525424 36.9192191,0.472627119 36.7468894,0.288983051 C36.573643,0.10440678 36.3334814,0 36.0832367,0 L26.9167633,0 C26.6665186,0 26.426357,0.10440678 26.2531106,0.288983051 C26.0807809,0.473559322 25.9891162,0.721525424 26.0010326,0.976016949 L26.9176799,20.5522881 C26.9405961,21.0500847 27.3439209,21.440678 27.8334106,21.440678 L30.5833527,21.440678 L30.5833527,45.6779661 L29.6667053,45.6779661 C29.319296,45.6779661 29.002136,45.8774576 28.8463059,46.1934746 L26.2531106,51.4678814 C26.0881141,51.805339 26.0001159,52.1828814 26.0001159,52.5594915 C26.0001159,53.9055932 27.0771766,55 28.3998987,55 L34.6001013,55 C35.9228234,55 36.9998841,53.9055932 36.9998841,52.5594915 C36.9998841,52.1828814 36.9118859,51.805339 36.7468894,51.4678814 L36.7468894,51.4678814 Z M35.1216737,1.86440678 L35.0345922,3.72881356 L27.9654078,3.72881356 L27.8783263,1.86440678 L35.1216737,1.86440678 Z M28.0524893,5.59322034 L34.9475107,5.59322034 L34.2930245,19.5762712 L28.7069755,19.5762712 L28.0524893,5.59322034 Z M34.6001013,53.1355932 L28.3998987,53.1355932 C28.0873219,53.1355932 27.8334106,52.8773729 27.8334106,52.5594915 C27.8334106,52.4709322 27.8535769,52.3814407 27.8929927,52.3022034 L30.2331934,47.5423729 L32.7668066,47.5423729 L35.1070073,52.3012712 C35.1464231,52.3814407 35.1665894,52.4709322 35.1665894,52.5594915 C35.1665894,52.8773729 34.9126781,53.1355932 34.6001013,53.1355932 L34.6001013,53.1355932 Z" id="Shape"></path>
            </g>
        </g>
    </g>
</svg>