<?xml version="1.0" encoding="UTF-8"?>
<svg width="58px" height="59px" viewBox="0 0 58 59" version="1.1" xmlns="http://www.w3.org/2000/svg" xmlns:xlink="http://www.w3.org/1999/xlink">
    <!-- Generator: Sketch 61.2 (89653) - https://sketch.com -->
    <title>relax</title>
    <desc>Created with Sketch.</desc>
    <g id="Page-1" stroke="none" stroke-width="1" fill="none" fill-rule="evenodd">
        <g id="relax" transform="translate(0.000000, 0.779940)" fill="#B8B8B8" fill-rule="nonzero">
            <path d="M56.9793871,48.5366452 C57.0364516,48.2513226 57.0645161,47.9772258 57.0645161,47.7096774 C57.0645161,45.4233548 55.4124516,43.5224516 53.2411935,43.1183226 C53.1027419,42.3633871 52.7856129,41.6561613 52.3019677,41.0527742 C52.3590323,40.7674516 52.3870968,40.4933548 52.3870968,40.2258065 C52.3870968,37.6466774 50.2888065,35.5483871 47.7096774,35.5483871 C46.8808387,35.5483871 46.0688387,35.7775806 45.357871,36.192 C44.6693548,35.7934839 43.8826129,35.5483871 43.0322581,35.5483871 C42.7123226,35.5483871 42.3989355,35.581129 42.0967742,35.642871 L42.0967742,19.6451613 C42.0967742,16.7460968 37.063871,15.1539032 31.8064516,14.9845806 L31.8064516,13.0022903 C33.9384194,12.5672903 35.5483871,10.6785484 35.5483871,8.41935484 L35.5483871,8.25190323 C35.5483871,7.61483871 35.4211613,6.9946129 35.1704516,6.409 L33.0347419,1.42567742 C32.6633548,0.560354839 31.8139355,0 30.8709677,0 C29.928,0 29.0785806,0.560354839 28.7071935,1.42567742 L26.5714839,6.409 C26.3207742,6.9946129 26.1935484,7.61483871 26.1935484,8.25190323 L26.1935484,8.41935484 C26.1935484,10.6776129 27.8035161,12.5672903 29.9354839,13.0022903 L29.9354839,14.9845806 C24.6780645,15.1539032 19.6451613,16.7460968 19.6451613,19.6451613 L19.6451613,30.7549677 C17.9790645,30.2881613 16.0248387,30.016871 14.0322581,29.9523226 L14.0322581,27.9700323 C16.1642258,27.5350323 17.7741935,25.6462903 17.7741935,23.3870968 L17.7741935,23.2196452 C17.7741935,22.5825806 17.6469677,21.9623548 17.3962581,21.3767419 L15.2605484,16.3934194 C14.8891613,15.5280968 14.0397419,14.9677419 13.0967742,14.9677419 C12.1538065,14.9677419 11.3043871,15.5280968 10.933,16.3934194 L8.79729032,21.3767419 C8.54658065,21.9623548 8.41935484,22.5825806 8.41935484,23.2196452 L8.41935484,23.3870968 C8.41935484,25.6453548 10.0293226,27.5350323 12.1612903,27.9700323 L12.1612903,29.9523226 C6.98619355,30.1188387 2.03935484,31.6670645 1.88593548,34.481 L1.88032258,34.4800645 L0.0972903226,46.9631613 C0.0327419355,47.4140645 0,47.8733871 0,48.3308387 C0,53.6621613 4.33783871,58 9.66916129,58 L16.5234516,58 C20.0277742,58 23.0924194,56.1206129 24.7893871,53.3225806 L37.6653871,53.3225806 C36.9235484,54.3843548 36.483871,55.6734516 36.483871,57.0645161 L36.483871,58 L43.0322581,58 C44.107129,58 45.1464516,57.7268387 46.0856774,57.2291613 C46.8219032,57.7137419 47.6993871,58 48.6451613,58 C50.2083548,58 51.5863226,57.2226129 52.4357419,56.0410968 C52.7266774,56.0962903 53.0222903,56.1290323 53.3225806,56.1290323 C55.9017097,56.1290323 58,54.0307419 58,51.4516129 C58,50.3795484 57.6407742,49.3626774 56.9793871,48.5366452 Z M50.516129,49.5806452 C51.0315806,49.5806452 51.4516129,50.0006774 51.4516129,50.516129 C51.4516129,51.0315806 51.0315806,51.4516129 50.516129,51.4516129 C50.0006774,51.4516129 49.5806452,51.0315806 49.5806452,50.516129 C49.5806452,50.0006774 50.0006774,49.5806452 50.516129,49.5806452 Z M48.4206452,48.6676129 C47.4019032,48.7171935 46.4767097,49.0923226 45.7301935,49.6938387 C45.2063226,49.1737097 44.9032258,48.4711613 44.9032258,47.7096774 C44.9032258,46.1623871 46.1623871,44.9032258 47.7096774,44.9032258 C49.2569677,44.9032258 50.516129,46.1623871 50.516129,47.7096774 C49.6798065,47.7096774 48.9351613,48.0848065 48.4206452,48.6676129 Z M39.6869677,43.9677419 C39.4343871,44.542129 39.2903226,45.1726452 39.2903226,45.8387097 C39.2903226,46.4364839 39.4138065,47.0043226 39.6186774,47.531 C39.2108065,47.645129 38.7898387,47.7096774 38.3548387,47.7096774 L33.7719032,47.7096774 C34.2059677,45.5777097 36.0965806,43.9677419 38.3548387,43.9677419 L39.6869677,43.9677419 Z M41.1612903,45.8387097 C41.1612903,44.6207097 41.9667419,43.5860645 43.0462903,43.1978387 C43.0893226,43.9050645 43.3924194,44.5580323 43.8807419,45.037 C43.3493871,45.7966129 43.0322581,46.7152581 43.0322581,47.7096774 C43.0322581,47.9762903 43.063129,48.2382258 43.1080323,48.4964194 C41.9826452,48.1306452 41.1612903,47.0847742 41.1612903,45.8387097 Z M44.9032258,43.0322581 C44.9032258,42.5168065 45.3232581,42.0967742 45.8387097,42.0967742 C46.3541613,42.0967742 46.7741935,42.5168065 46.7741935,43.0322581 C46.7741935,43.0659355 46.7648387,43.0968065 46.7620323,43.1295484 C46.2157097,43.2427419 45.7105484,43.4625806 45.2512258,43.7479032 C45.0398065,43.5739032 44.9032258,43.3166452 44.9032258,43.0322581 Z M50.516129,40.2258065 C50.516129,40.4699677 50.4721613,40.7272258 50.3786129,41.0359355 L50.2149032,41.5766452 L50.6171613,41.9732903 C50.9595484,42.311 51.1906129,42.7244839 51.3234516,43.1716452 C50.8716129,43.2782903 50.4366129,43.442 50.0352903,43.675871 C49.6030968,43.4260968 49.1381613,43.2277742 48.633,43.1258065 C48.6339355,43.094 48.6451613,43.0640645 48.6451613,43.0322581 C48.6451613,42.1819032 48.2569355,41.4288387 47.6582258,40.9133871 C47.6919032,40.6860645 47.7096774,40.456871 47.7096774,40.2258065 C47.7096774,39.2313871 47.3925484,38.3136774 46.862129,37.555 C47.1334194,37.4689355 47.416871,37.4193548 47.7096774,37.4193548 C49.2569677,37.4193548 50.516129,38.6785161 50.516129,40.2258065 Z M45.8387097,40.2258065 C45.0023871,40.2258065 44.2577419,40.6009355 43.7432258,41.1837419 C42.7244839,41.2333226 41.7992903,41.6084516 41.0527742,42.2099677 C40.5289032,41.6898387 40.2258065,40.9872903 40.2258065,40.2258065 C40.2258065,38.6785161 41.4849677,37.4193548 43.0322581,37.4193548 C44.5795484,37.4193548 45.8387097,38.6785161 45.8387097,40.2258065 Z M28.0645161,8.41935484 L28.0645161,8.25190323 C28.0645161,7.86929032 28.1412258,7.49790323 28.2909032,7.14616129 L30.4266129,2.16377419 C30.5790968,1.80735484 31.1628387,1.80829032 31.3153226,2.16377419 L33.4510323,7.14616129 C33.6007097,7.49790323 33.6774194,7.86929032 33.6774194,8.25190323 L33.6774194,8.41935484 C33.6774194,9.63735484 32.8925484,10.6663871 31.8064516,11.0536774 L31.8064516,7.48387097 L29.9354839,7.48387097 L29.9354839,11.0536774 C28.8493871,10.6663871 28.0645161,9.63735484 28.0645161,8.41935484 Z M29.9354839,16.8564839 L29.9354839,20.5806452 L31.8064516,20.5806452 L31.8064516,16.8564839 C36.9039032,17.0304839 40.2258065,18.5918065 40.2258065,19.6451613 C40.2258065,20.762129 36.4950968,22.4516129 30.8709677,22.4516129 C25.2468387,22.4516129 21.516129,20.762129 21.516129,19.6451613 C21.516129,18.590871 24.8380323,17.0295484 29.9354839,16.8564839 Z M10.2903226,23.3870968 L10.2903226,23.2196452 C10.2903226,22.8370323 10.3670323,22.4656452 10.5167097,22.1139032 L12.6524194,17.1315161 C12.8049032,16.7750968 13.3886452,16.7760323 13.541129,17.1315161 L15.6768387,22.1139032 C15.8265161,22.4656452 15.9032258,22.8370323 15.9032258,23.2196452 L15.9032258,23.3870968 C15.9032258,24.6050968 15.1183548,25.634129 14.0322581,26.0214194 L14.0322581,22.4516129 L12.1612903,22.4516129 L12.1612903,26.0214194 C11.0751935,25.634129 10.2903226,24.6050968 10.2903226,23.3870968 Z M12.1612903,31.8242258 L12.1612903,35.5483871 L14.0322581,35.5483871 L14.0322581,31.8242258 C19.1297097,31.9982258 22.4516129,33.5595484 22.4516129,34.6129032 C22.4516129,35.729871 18.7209032,37.4193548 13.0967742,37.4193548 C7.47264516,37.4193548 3.74193548,35.729871 3.74193548,34.6129032 C3.74193548,33.5586129 7.06383871,31.9972903 12.1612903,31.8242258 Z M16.5243871,56.1290323 L9.67009677,56.1290323 C5.36967742,56.1290323 1.87096774,52.6303226 1.87096774,48.3308387 C1.87096774,47.9622581 1.89716129,47.590871 1.9486129,47.2279032 L3.39674194,37.0881935 C5.45106452,38.5400645 9.28841935,39.2903226 13.0967742,39.2903226 C16.905129,39.2903226 20.7424839,38.5400645 22.795871,37.0881935 L24.244,47.2279032 C24.2963871,47.590871 24.3225806,47.9622581 24.3225806,48.3308387 C24.3225806,52.6303226 20.823871,56.1290323 16.5243871,56.1290323 Z M26.0962581,46.9631613 L24.3132258,34.4800645 L24.3076129,34.481 C24.2374516,33.1900323 23.1653871,32.1638065 21.516129,31.4172903 L21.516129,22.3402903 C23.635,23.6462258 27.2628065,24.3225806 30.8709677,24.3225806 C34.479129,24.3225806 38.1069355,23.6462258 40.2258065,22.3402903 L40.2258065,36.5072581 C39.0966774,37.3622903 38.3548387,38.7037742 38.3548387,40.224871 C38.3548387,40.8778387 38.4989032,41.5120968 38.7561613,42.0958387 L38.3548387,42.0958387 C34.743871,42.0958387 31.8064516,45.0332581 31.8064516,48.6442258 L31.8064516,49.5797097 L38.3548387,49.5797097 C39.1471935,49.5797097 39.9367419,49.4328387 40.6748387,49.1540645 C41.5205161,49.9950645 42.6842581,50.516129 43.9677419,50.516129 L43.9724194,50.516129 L43.9677419,50.516129 L43.0322581,50.516129 C41.8049032,50.516129 40.659871,50.8613226 39.6766774,51.4516129 L25.666871,51.4516129 C26.0027097,50.4712258 26.1935484,49.4234839 26.1935484,48.3308387 C26.1935484,47.8733871 26.1608065,47.4140645 26.0962581,46.9631613 Z M38.4493226,56.1290323 C38.8833871,53.9970645 40.774,52.3870968 43.0322581,52.3870968 L44.0622258,52.3870968 C44.0004839,52.6892581 43.9677419,53.0026452 43.9677419,53.3225806 C43.9677419,54.2384194 44.2418387,55.0878387 44.6992903,55.8100323 C44.1698065,56.0120968 43.6094516,56.1290323 43.0322581,56.1290323 L38.4493226,56.1290323 Z M48.6451613,56.1290323 C47.097871,56.1290323 45.8387097,54.869871 45.8387097,53.3225806 C45.8387097,52.1027097 46.6450968,51.0661935 47.7265161,50.6798387 C47.8125806,52.1494839 49.0249677,53.3225806 50.516129,53.3225806 C50.838871,53.3225806 51.1438387,53.2570968 51.4329032,53.1560645 C51.4357097,53.2121935 51.4516129,53.2655161 51.4516129,53.3225806 C51.4516129,54.869871 50.1924516,56.1290323 48.6451613,56.1290323 Z M53.3225806,54.2580645 C53.2907742,54.2580645 53.2608387,54.2505806 53.2290323,54.2496452 C53.2898387,53.9502903 53.3225806,53.6397097 53.3225806,53.3225806 C53.3225806,52.7687742 53.2271613,52.2318065 53.0400645,51.7210323 C53.2159355,51.3543226 53.3225806,50.9492581 53.3225806,50.516129 C53.3225806,49.6657742 52.9343548,48.9127097 52.3356452,48.3972581 C52.3693226,48.1699355 52.3870968,47.9407419 52.3870968,47.7096774 C52.3870968,46.7152581 52.0699677,45.7975484 51.5395484,45.038871 C51.8108387,44.9528065 52.0942903,44.9032258 52.3870968,44.9032258 C53.9343871,44.9032258 55.1935484,46.1623871 55.1935484,47.7096774 C55.1935484,47.9538387 55.1495806,48.2110968 55.0560323,48.5198065 L54.8923226,49.0605161 L55.2945806,49.4571613 C55.8324839,49.9894516 56.1290323,50.6976129 56.1290323,51.4516129 C56.1290323,52.9989032 54.869871,54.2580645 53.3225806,54.2580645 L53.3225806,54.2580645 Z" id="Shape"></path>
        </g>
    </g>
</svg>