<svg width="16" height="16" viewBox="0 0 16 16" fill="none" xmlns="http://www.w3.org/2000/svg">
<g clip-path="url(#clip0)">
<path d="M7.98441 0.0168457C5.43916 0.0168457 3.36844 2.0876 3.36844 4.63281C3.36844 6.20935 4.16309 7.6036 5.37272 8.43669C4.24337 8.82641 3.20825 9.47016 2.33862 10.3398C0.830531 11.8479 0 13.8529 0 15.9857H1.24756C1.24756 12.2709 4.26969 9.24881 7.98441 9.24881C10.5297 9.24881 12.6004 7.17806 12.6004 4.63281C12.6004 2.08756 10.5297 0.0168457 7.98441 0.0168457ZM7.98441 8.00125C6.12706 8.00125 4.616 6.49019 4.616 4.63285C4.616 2.7755 6.12706 1.26441 7.98441 1.26441C9.84175 1.26441 11.3528 2.77547 11.3528 4.63285C11.3528 6.49022 9.84175 8.00125 7.98441 8.00125Z" fill="#828282"/>
<path d="M13.3802 12.117V9.49707H12.1326V12.117H9.5127V13.3645H12.1326V15.9844H13.3802V13.3645H16V12.117H13.3802Z" fill="#828282"/>
</g>
<defs>
<clipPath id="clip0">
<rect width="16" height="16" fill="white"/>
</clipPath>
</defs>
</svg>
