<?xml version="1.0" encoding="UTF-8"?>
<svg width="64px" height="64px" viewBox="0 0 64 64" version="1.1" xmlns="http://www.w3.org/2000/svg" xmlns:xlink="http://www.w3.org/1999/xlink">
    <!-- Generator: Sketch 61.2 (89653) - https://sketch.com -->
    <title>Artboard</title>
    <desc>Created with Sketch.</desc>
    <g id="Artboard" stroke="none" stroke-width="1" fill="none" fill-rule="evenodd">
        <rect id="Rectangle" fill="#000000" x="0" y="0" width="64" height="64"></rect>
        <path d="M40.3710938,43.8183594 L42.1289062,37.578125 L41.2148438,37.578125 C40.1601562,39.7460938 39.0703125,41.09375 37.9453125,41.6210938 C36.8203125,42.1484375 34.6582031,42.4121094 31.4589844,42.4121094 C30.6386719,42.4121094 30.0791016,42.40625 29.7802734,42.3945312 C29.4814453,42.3828125 29.1972656,42.359375 28.9277344,42.3242188 C28.4707031,42.265625 28.1748047,42.1220703 28.0400391,41.8935547 C27.9052734,41.6650391 27.8378906,41.3515625 27.8378906,40.953125 L27.8378906,40.953125 L27.8378906,23.65625 C27.8378906,22.4609375 28.0634766,21.6816406 28.5146484,21.3183594 C28.9658203,20.9550781 29.8535156,20.7382812 31.1777344,20.6679688 L31.1777344,20.6679688 L31.1777344,20 L21,20 L21,20.6679688 C22.3359375,20.7617188 23.1972656,21.0048828 23.5839844,21.3974609 C23.9707031,21.7900391 24.1640625,22.625 24.1640625,23.9023438 L24.1640625,23.9023438 L24.1640625,39.9160156 C24.1640625,41.2753906 23.9677734,42.1220703 23.5751953,42.4560547 C23.1826172,42.7900391 22.3242188,43.0273438 21,43.1679688 L21,43.1679688 L21,43.8183594 L40.3710938,43.8183594 Z" id="L" fill="#FFFFFF" fill-rule="nonzero"></path>
        <rect id="Rectangle" stroke="#FFFFFF" stroke-width="2" x="3" y="3" width="58" height="58"></rect>
    </g>
</svg>