<svg width="16" height="16" viewBox="0 0 16 16" fill="none" xmlns="http://www.w3.org/2000/svg">
<path d="M7.69229 1.33331L13.9231 1.3333C14.3052 1.3333 14.6154 1.63198 14.6154 1.99996L14.6154 14C14.6154 14.368 14.3052 14.6666 13.9231 14.6666L7.69229 14.6666C7.30945 14.6666 7 14.9646 7 15.3333C7 15.7019 7.30945 16 7.69229 16L13.9231 16C15.0682 16 16 15.1026 16 14L16 1.99999C16 0.897326 15.0682 8.14638e-08 13.9231 1.81569e-07L7.69229 7.26283e-07C7.30945 7.59752e-07 7 0.297992 7 0.666653C7 1.03532 7.30945 1.33331 7.69229 1.33331Z" fill="#828282"/>
<path d="M10.7962 8.50859L6.63693 12.7944C6.36877 13.0715 5.93508 13.0679 5.66965 12.7872C5.40422 12.5065 5.40696 12.0543 5.6765 11.7772L8.64882 8.71432L0.684066 8.71432C0.305774 8.71432 4.02578e-07 8.39504 4.3711e-07 8.00004C4.71642e-07 7.60505 0.305774 7.28573 0.684066 7.28573L8.64882 7.28573L5.6765 4.22286C5.40699 3.94571 5.40493 3.49357 5.66965 3.21285C5.80372 3.07142 5.98022 3 6.15672 3C6.33049 3 6.50422 3.06857 6.63694 3.20573L10.7962 7.4915C10.9261 7.62577 11 7.80866 11 8.00008C11 8.19143 10.9268 8.37358 10.7962 8.50859Z" fill="#828282"/>
</svg>
