<svg width="19" height="19" viewBox="0 0 19 19" fill="none" xmlns="http://www.w3.org/2000/svg">
<path d="M18.7409 8.12234L10.1149 0.280459L10.0325 0.205534C9.97589 0.154062 9.9137 0.112239 9.84797 0.080065C9.84504 0.0786548 9.842 0.0776157 9.83907 0.0762055C9.62487 -0.0254018 9.37509 -0.0254018 9.16086 0.0762055C9.15793 0.0775786 9.15488 0.0786177 9.15195 0.080065C9.08623 0.112239 9.02404 0.154062 8.96741 0.205534L8.88617 0.279383L0.259146 8.12234C-0.0643733 8.41643 -0.0882346 8.91716 0.205894 9.24068C0.499985 9.56421 1.0007 9.58807 1.32422 9.29394L1.58336 9.05836V18.2083C1.58336 18.6456 1.93779 19 2.37501 19H6.33335H12.6667H16.625C17.0622 19 17.4166 18.6456 17.4166 18.2083V9.05836L17.6758 9.29394C17.9993 9.58807 18.5 9.56421 18.7941 9.24068C19.0882 8.91716 19.0644 8.41647 18.7409 8.12234ZM7.91666 17.4167V12.6666C7.91666 11.792 8.62541 11.0832 9.5 11.0832C10.3746 11.0832 11.0833 11.792 11.0833 12.6666V17.4167H7.91666ZM15.8333 17.4167H12.6667V12.6666C12.6667 10.9175 11.249 9.49982 9.5 9.49982C7.75096 9.49982 6.33335 10.9175 6.33335 12.6665V17.4166H3.16666V7.61909L9.5 1.86127L15.8333 7.61909V17.4167Z" fill="black"/>
</svg>
