<svg width="17" height="17" viewBox="0 0 17 17" fill="none" xmlns="http://www.w3.org/2000/svg">
<path opacity="0.297573" fill-rule="evenodd" clip-rule="evenodd" d="M2.4995 4C1.67122 4 1 3.327 1 2.5C1 1.672 1.67122 1 2.4995 1C3.32778 1 4 1.672 4 2.5C4 3.327 3.32778 4 2.4995 4ZM7.64915 0H0V7.65C0 8.1192 0.19125 8.54335 0.49895 8.85275L8.1515 16.5011C8.45835 16.8088 8.88335 17 9.3534 17C9.82345 17 10.2484 16.8096 10.5553 16.5028L16.5002 10.557C16.8088 10.2493 17 9.8226 17 9.3534C17 8.88335 16.8105 8.4575 16.5011 8.1515L8.85275 0.49725C8.54335 0.19125 8.1192 0 7.64915 0Z" fill="#747B81"/>
</svg>
