<svg viewBox="0 0 87 15" width="87" height="15" fill="none" xmlns="http://www.w3.org/2000/svg"><path fill-rule="evenodd" clip-rule="evenodd" d="M26.123 12.447c-1.341 1.302-3.018 1.953-5.03 1.953-2.135 0-3.876-.713-5.224-2.138-1.256-1.341-1.885-2.963-1.885-4.864 0-2.096.658-3.818 1.973-5.166 1.328-1.367 3.04-2.05 5.137-2.05 2.018 0 3.694.65 5.029 1.953 1.374 1.334 2.06 3.053 2.06 5.156 0 2.103-.686 3.822-2.06 5.156zM12.753 9.47L11.944 14H.361v-.508c.547-.02.938-.091 1.172-.215.397-.208.596-.605.596-1.191V2.408c0-.586-.189-.98-.567-1.181-.22-.124-.621-.202-1.2-.235V.484h6.992v.508c-.814.026-1.356.14-1.626.342-.27.202-.406.7-.406 1.494v9.444c0 .442.116.735.347.878.231.144.682.215 1.352.215 1.205 0 2.216-.265 3.033-.796.817-.53 1.521-1.564 2.114-3.1h.586zm8.34 4.258c-1.51 0-2.542-.89-3.095-2.667-.3-.957-.45-2.213-.45-3.769 0-1.53.147-2.773.44-3.73.56-1.804 1.595-2.706 3.106-2.706 1.087 0 1.948.54 2.583 1.622.634 1.08.952 2.685.952 4.814 0 1.55-.15 2.806-.45 3.77-.56 1.777-1.588 2.666-3.085 2.666zm20.587-1.28c-1.341 1.302-3.018 1.953-5.03 1.953-2.135 0-3.877-.713-5.224-2.138-1.257-1.341-1.885-2.963-1.885-4.864 0-2.096.658-3.818 1.973-5.166C32.842.865 34.554.182 36.65.182c2.019 0 3.695.65 5.03 1.953 1.373 1.334 2.06 3.053 2.06 5.156 0 2.103-.687 3.822-2.06 5.156zm-5.03 1.28c-1.51 0-2.542-.89-3.095-2.667-.3-.957-.45-2.213-.45-3.769 0-1.53.147-2.773.44-3.73.56-1.804 1.595-2.706 3.105-2.706 1.088 0 1.949.54 2.583 1.622.635 1.08.953 2.685.953 4.814 0 1.55-.15 2.806-.45 3.77-.56 1.777-1.588 2.666-3.086 2.666zm15.04-.235V14h-6.73v-.508c.541-.02.925-.091 1.153-.215.384-.208.577-.605.577-1.191V2.408c0-.58-.176-.97-.528-1.172-.215-.123-.615-.205-1.201-.244V.484h6.758v.508c-.69.059-1.156.189-1.397.39-.24.203-.361.684-.361 1.446v4.277l4.307-4.355c.3-.3.493-.513.58-.64a.795.795 0 00.133-.464c0-.253-.116-.416-.347-.488-.231-.071-.679-.127-1.343-.166V.484h5.791v.508c-1.035.085-1.893.378-2.573.88-.68.5-1.968 1.721-3.862 3.661l6.103 7.549c.13.163.259.265.386.308.127.042.324.076.59.102V14h-6.708v-.508c.605-.006 1.018-.032 1.24-.078.221-.046.332-.16.332-.342a.742.742 0 00-.108-.327 3.939 3.939 0 00-.38-.542l-3.633-4.54-.508.507v3.916c0 .58.192.973.576 1.182.221.123.606.198 1.153.224zM64.453 14v-.508c-.456-.006-.797-.045-1.025-.117-.384-.13-.576-.338-.576-.625 0-.234.088-.609.263-1.123.085-.24.274-.759.567-1.553h4.492l.508 1.211c.11.267.198.495.263.684.105.319.157.556.157.713 0 .345-.103.56-.308.644-.205.085-.633.14-1.284.166V14h6.474v-.508c-.455.013-.807-.151-1.054-.493-.248-.342-.622-1.102-1.123-2.28L67.344.21h-.557l-4.443 10.947c-.352.866-.622 1.426-.81 1.68-.294.404-.681.622-1.163.654V14h4.082zm-.469-4.717h3.887l-1.914-4.629h-.166l-1.807 4.63zM81.436 14v-.508c-.678-.026-1.14-.153-1.387-.38-.248-.229-.371-.71-.371-1.446v-3.73c1.191 0 2.09-.026 2.695-.079a6.189 6.189 0 001.816-.449c.801-.351 1.376-.815 1.724-1.391a3.516 3.516 0 00.523-1.851c0-1.348-.445-2.298-1.334-2.852-.888-.553-2.185-.83-3.891-.83h-6.436v.508c.651.072 1.09.207 1.319.405.228.199.342.676.342 1.431v8.838c0 .71-.113 1.18-.337 1.411-.225.231-.666.37-1.324.415V14h6.66zM79.678 1.871v5.371c1.191-.02 1.985-.156 2.383-.41.631-.404.947-1.273.947-2.607 0-.912-.153-1.648-.46-2.207-.305-.56-.891-.84-1.757-.84-.397 0-.682.047-.855.141-.172.095-.258.279-.258.552z" fill="#000"/></svg>
